<?xml version="1.0" encoding="iso-8859-1"?>
<!-- Generator: Adobe Illustrator 19.0.0, SVG Export Plug-In . SVG Version: 6.00 Build 0)  -->
<svg version="1.1" id="Capa_1" xmlns="http://www.w3.org/2000/svg" xmlns:xlink="http://www.w3.org/1999/xlink" x="0px" y="0px"
	 viewBox="0 0 512 512" style="enable-background:new 0 0 512 512;" xml:space="preserve">
<g>
	<g>
		<path d="M480,80H32C14.368,80,0,94.368,0,112v288c0,17.632,14.368,32,32,32h448c17.632,0,32-14.368,32-32V112
			C512,94.368,497.632,80,480,80z M480,416v-16H32V112h448v288c0,0,0,0,0.032,0L480,416z"/>
	</g>
</g>
<g>
	<g>
		<path d="M256,240c-8.832,0-16-7.168-16-16c0-8.832,7.168-16,16-16h32c8.832,0,16-7.168,16-16c0-8.832-7.168-16-16-16h-16v-16
			c0-8.832-7.168-16-16-16c-8.832,0-16,7.168-16,16v18.944c-18.592,6.624-32,24.224-32,45.056c0,26.464,21.536,48,48,48
			c8.832,0,16,7.168,16,16c0,8.832-7.168,16-16,16h-32c-8.832,0-16,7.168-16,16c0,8.832,7.168,16,16,16h16v16
			c0,8.832,7.168,16,16,16c8.832,0,16-7.168,16-16v-18.944c18.592-6.624,32-24.224,32-45.056C304,261.536,282.464,240,256,240z"/>
	</g>
</g>
<g>
	<g>
		<path d="M144,144H80c-8.832,0-16,7.168-16,16c0,8.832,7.168,16,16,16h64c8.832,0,16-7.168,16-16C160,151.168,152.832,144,144,144z
			"/>
	</g>
</g>
<g>
	<g>
		<path d="M432,336h-64c-8.832,0-16,7.168-16,16c0,8.832,7.168,16,16,16h64c8.832,0,16-7.168,16-16C448,343.168,440.832,336,432,336
			z"/>
	</g>
</g>
<g>
</g>
<g>
</g>
<g>
</g>
<g>
</g>
<g>
</g>
<g>
</g>
<g>
</g>
<g>
</g>
<g>
</g>
<g>
</g>
<g>
</g>
<g>
</g>
<g>
</g>
<g>
</g>
<g>
</g>
</svg>
